<svg width="54" height="54" viewBox="0 0 54 54" fill="none" xmlns="http://www.w3.org/2000/svg">
<rect x="0.25" y="0.25" width="53.5" height="53.5" rx="26.75" fill="white" fill-opacity="0.06"/>
<rect x="0.25" y="0.25" width="53.5" height="53.5" rx="26.75" stroke="url(#paint0_linear_1681_7014)" stroke-width="0.5"/>
<path d="M36.5604 32.0168L36.561 32.0181C37.0246 33.0941 36.9188 34.3233 36.2564 35.2995L36.2564 35.2995L36.253 35.3046C35.6058 36.2842 34.5127 36.8703 33.3401 36.8703H20.5801C19.3638 36.8703 18.2544 36.2503 17.6153 35.2172C16.9779 34.1868 16.9236 32.9208 17.4676 31.8233C17.4678 31.823 17.4679 31.8227 17.4681 31.8224L19.1965 28.3756C19.1966 28.3754 19.1967 28.3752 19.1968 28.375C19.6549 27.4681 20.299 26.9959 20.9799 26.9278C21.6686 26.8589 22.3949 27.1776 23.0282 27.9707L23.2468 28.2489C23.2468 28.249 23.2469 28.2491 23.247 28.2492C23.8238 28.9842 24.6032 29.4379 25.4539 29.3584C26.291 29.2894 26.9856 28.7158 27.437 27.9035C27.4371 27.9033 27.4371 27.9032 27.4372 27.9031L29.3369 24.4936L29.3374 24.4928C30.0062 23.2871 30.7918 22.8141 31.4741 22.8496L31.4744 22.8496C32.1674 22.8853 32.8939 23.4355 33.43 24.696L33.4304 24.6968L36.5604 32.0168Z" fill="white" stroke="white"/>
<path d="M21.9698 23.3791C23.8366 23.3791 25.3498 21.8659 25.3498 19.9991C25.3498 18.1324 23.8366 16.6191 21.9698 16.6191C20.1031 16.6191 18.5898 18.1324 18.5898 19.9991C18.5898 21.8659 20.1031 23.3791 21.9698 23.3791Z" fill="white"/>
<defs>
<linearGradient id="paint0_linear_1681_7014" x1="27" y1="0" x2="27" y2="54" gradientUnits="userSpaceOnUse">
<stop stop-color="white" stop-opacity="0.3"/>
<stop offset="1" stop-color="white" stop-opacity="0.1"/>
</linearGradient>
</defs>
</svg>
