<svg width="29" height="30" viewBox="0 0 29 30" fill="none" xmlns="http://www.w3.org/2000/svg">
<path d="M16.2007 20.6406C16.2007 20.6406 16.9559 20.6406 17.7111 22.2525C17.7111 22.2525 20.1108 18.2239 22.2423 17.4192M20.4721 8.95961H20.4842M14.4305 8.95961H14.4426M8.38881 8.95961H8.40089M9.53552 14.9626H6.05068C5.57401 14.9632 5.10187 14.87 4.66124 14.6882C4.2206 14.5063 3.8201 14.2395 3.48259 13.9029C3.14508 13.5663 2.87717 13.1665 2.69417 12.7263C2.51117 12.2862 2.41665 11.8143 2.41602 11.3376V6.54053C2.41602 4.53832 4.04364 2.91553 6.05068 2.91553H22.948C23.4247 2.9149 23.8968 3.00816 24.3375 3.18998C24.7781 3.37181 25.1786 3.63865 25.5161 3.97527C25.8536 4.31188 26.1215 4.71167 26.3045 5.15182C26.4875 5.59197 26.582 6.06385 26.5827 6.54053V11.5309" stroke="white" stroke-width="1.8125" stroke-linecap="round" stroke-linejoin="round"/>
<path d="M26.5821 19.8359C26.5821 15.8315 23.3268 12.5859 19.3116 12.5859C15.2963 12.5859 12.041 15.8315 12.041 19.8359C12.041 23.8404 15.2963 27.0859 19.3116 27.0859C23.3268 27.0859 26.5821 23.8391 26.5821 19.8359Z" stroke="white" stroke-width="1.8125" stroke-linecap="round" stroke-linejoin="round"/>
</svg>
