<svg width="40" height="30" viewBox="0 0 40 30" fill="none" xmlns="http://www.w3.org/2000/svg">
<rect width="40" height="30" rx="15" fill="#010B3C"/>
<path d="M27.5952 18.5264L23.0652 23.0564C21.2052 24.9164 18.1852 24.9164 16.3152 23.0564L11.9252 18.6664C10.0652 16.8064 10.0652 13.7864 11.9252 11.9164L16.4652 7.39637C17.4152 6.44637 18.7252 5.93637 20.0652 6.00637L25.0652 6.24637C27.0652 6.33637 28.6552 7.92637 28.7552 9.91637L28.9952 14.9164C29.0552 16.2664 28.5452 17.5764 27.5952 18.5264Z" stroke="white" stroke-width="1.5" stroke-linecap="round" stroke-linejoin="round"/>
<path d="M22.2651 15.2264C20.8844 15.2264 19.7651 14.1071 19.7651 12.7264C19.7651 11.3457 20.8844 10.2264 22.2651 10.2264C23.6458 10.2264 24.7651 11.3457 24.7651 12.7264C24.7651 14.1071 23.6458 15.2264 22.2651 15.2264Z" stroke="white" stroke-width="1.5" stroke-linecap="round"/>
<path d="M18.7651 20.2264L14.7651 16.2264" stroke="white" stroke-width="1.5" stroke-miterlimit="10" stroke-linecap="round" stroke-linejoin="round"/>
</svg>
